<svg width="294" height="239" viewBox="0 0 294 239" fill="none" xmlns="http://www.w3.org/2000/svg">
<path d="M92.4472 239C203.404 239 264.082 147.059 264.082 67.3341C264.082 64.722 264.015 62.1199 263.914 59.5347C275.692 51.0182 285.923 40.3909 294 28.2961C283.197 33.0963 271.553 36.3349 259.37 37.7925C271.822 30.3263 281.38 18.504 285.89 4.4165C274.212 11.3307 261.322 16.3563 247.591 19.0627C236.553 7.33491 220.904 3.80574e-07 203.538 3.80574e-07C170.221 3.80574e-07 143.231 27.0204 143.231 60.3289C143.231 65.0651 143.736 69.6701 144.779 74.0866C94.6347 71.5653 50.2115 47.5577 20.4615 11.0513C15.2788 19.9616 12.2837 30.3261 12.2837 41.374C12.2837 62.3084 22.9182 80.7855 39.1394 91.5977C29.2451 91.2914 19.923 88.5713 11.8124 84.0471C11.7787 84.2996 11.7789 84.5521 11.7789 84.818C11.7789 114.04 32.5769 138.435 60.173 143.969C55.125 145.346 49.7739 146.09 44.2883 146.09C40.3845 146.09 36.6152 145.706 32.9469 145.002C40.62 168.973 62.899 186.417 89.2836 186.908C68.6538 203.089 42.6395 212.733 14.3703 212.733C9.52411 212.733 4.71154 212.458 0 211.899C26.6875 229.009 58.3895 239 92.4472 239Z" fill="white"/>
</svg>
