<svg width="264" height="218" viewBox="0 0 264 218" fill="none" xmlns="http://www.w3.org/2000/svg">
<path d="M263.481 4.70998C262.535 1.92058 261.405 1.18653 259.642 0.489177C255.784 -0.942226 249.25 1.22323 249.25 1.22323C249.25 1.22323 17.9383 84.4648 4.72365 93.6772C1.87831 95.6591 0.925013 96.8336 0.452012 98.1916C-1.83232 104.725 5.28466 107.624 5.28466 107.624L64.9048 127.077C64.9048 127.077 67.1268 127.407 67.9188 126.893C81.4818 118.305 204.378 40.6419 211.465 38.036C212.584 37.7056 213.412 38.0727 213.192 38.8434C210.354 48.8266 103.614 143.776 103.614 143.776C103.614 143.776 103.207 144.29 102.95 144.877L102.811 144.804L97.2485 204.005C97.2485 204.005 94.9165 222.136 113.034 204.005C125.816 191.196 138.183 180.479 144.373 175.304C164.873 189.471 186.935 205.143 196.458 213.328C201.239 217.439 205.239 218.099 208.532 217.989C217.57 217.659 220.093 207.712 220.093 207.712C220.093 207.712 262.245 37.8892 263.653 15.1335C263.792 12.8947 263.983 11.4999 263.998 9.95843C264.023 7.82968 263.825 5.70095 263.481 4.70998Z" fill="white"/>
</svg>
